<?xml version="1.0" encoding="UTF-8"?>
<svg id="Camada_1" xmlns="http://www.w3.org/2000/svg" version="1.1" viewBox="0 0 1080 1080">
  <!-- Generator: Adobe Illustrator 29.5.1, SVG Export Plug-In . SVG Version: 2.1.0 Build 141)  -->
  <defs>
    <style>
      .st0 {
        fill: #3f58a4;
        fill-rule: evenodd;
      }
    </style>
  </defs>
  <path id="path2" class="st0" d="M942.4,102.4c-133.2,62-217,69.8-366.1,70.9-149.3,0-254.2,17.1-390.2,79.5C131.4,325.3,74.4,397.5,1.6,452.8c-4.1,32.4-2.2,46,24.1,65.3-4.1,8.3,3.9,53.1,36,65.2,26.4,37.5,47.4,47.7,91.7,62.5l-5.7-15.6c20.5,20.5,34.4,23.1,62.4,28.4-16.5-21.8-22.4-41.2-25.7-64.7,160.9,35.7,174.7,151.7,124.4,201.2-16.8-5.8-36-18.1-49-31.5-4.1,8.5-4.4,17.1-.9,25.6-10.5,3.6-21,1.6-31.5-6.1,5.5,38.7,16.3,51.6,48,74.1-22.1,56.2-26.5,89.5,38.9,110.7,32,10.4,60.6,11,105.8,8.4-15.8-8.8-26.8-15.4-39.7-28.4,34.2,3.7,63.6,5.8,97.9,2.8-32.4-34.9-34-74.6-11.4-113.5,30.5-52.4,114.5-44.1,194.4-24.1-77.3-81-20.3-78.8,63.7-39.3,35.2,16.6,67.2,38.2,103.8,66.2,2.6-45.8-.7-99.5-28.4-143.3,52.3,22.2,92.3,49.7,137.6,83.7-7.4-61.9-9.7-99.5-52.5-146.1,69,10.1,129.3,24.6,194.4,49.7-40.9-73.7-82-118.3-150.4-167.4,39.8,8.2,67.8,16.1,103.6,35.5-53.7-80.5-100.4-103.4-185.9-150.4,24.1-17.7,53.7-23.5,100.7-18.4-38.4-66.1-84.6-95.2-136.2-103.6,66.5-58.3,103.1-93,130.5-177.4ZM899.8,146.3c-118.5,30.8-208.3,35.6-330.7,38.6-129.5,3.2-251.8,17.2-375.9,84.9-52.3,67.4-111.2,126-183,185.9,52.4-10.3,73.6-13.4,90.8,1.4-27.1,9.6-40.4,30.4-63.9,51.1,2.9,27.6,8.9,39.7,24.1,62.4,152.8-4.6,311.6,5.9,360.4,163.2,20.7,66.8-45.8,192.7-141.9,130.5-27.4,82.3,32.7,92.9,102.2,102.2l-24.1-31.2c32.3,7,59.3,7.1,92.2,7.1-37.3-149.1,42.8-169.6,170.3-160.3-71.5-110.4,159.6-18.2,191.5,11.4-13.7-50.3-25.3-88.3-51.1-133.4,58.8,21.6,100.1,35.2,146.1,76.6-12.5-59.5-22.6-73.2-69.5-110.7,67.7-6.9,129.1,1.6,195.8,18.4-54.6-53.2-95.9-105.9-161.8-144.7,43.5,3.7,78.5,6.3,119.2,21.3-62.7-49.4-119.8-87.5-190.1-124.9,36.5-17.6,63.9-26,103.6-32.6-43.2-76-187-92.6-157.5,36.9-36-36-59.7-27.5-51.1,24.1-35.3-37.5-59.7-37.5-110.7-42.6,38.6-10.6,51.7-11.3,89.4-1.4l-12.8-29.8c104-50.5,166.5-115.4,238.4-204.3h0ZM329.4,810.4c-23.2-3.1-38.9-10.9-59.6-21.3l8.5,19.9c-10.8,0-17.9-1.6-28.4-4.3,13,24.1,27.3,34.3,49.7,49.7,16.1-14.8,21.1-24.5,29.8-44h0ZM89.6,589c12.4,21.3,28.3,27.3,48.2,41.1v-22.7c12.5,14,24.9,20.8,41.1,29.8-10.9-17.7-14.2-27.6-14.2-48.2-28.9-3.6-47-6.6-75.2,0ZM193.2,384.7c45.9-26.5,50.2-65,93.6-92.2,49.8-4.7,98,3.1,147.6-2.8-12.9,9.5-20.2,15.3-35.5,19.9,19.1,13.4,29.4,22.9,42.6,42.6-22.1-3.9-42.8-5.7-65.3-5.7,9.9,11,13.8,14.6,28.4,19.9-67,18.5-125.1-9.5-191.6,27l-19.9-8.5ZM268.4,336.5c8.5,11.3,9.1,14.8,11.4,28.4,5.7-3.3,12-5.7,17-9.9,12-10.3,31.5-39.8,2.8-41.1-16.5-.8-21.5,11.2-31.2,22.7ZM198.9,458.5c140.8-10.2,215.7,0,340.5,65.3-86.7-31.4-170-60.2-263.9-53.9,99.4,43.4,167.7,86.7,248.3,158.9-94.9-63.9-194.3-118.3-306.5-144.7l-18.4-25.5ZM231.5,505.3c103.6,39.3,164,66.8,219.9,164.6-55.9-74.6-116-107-201.5-141.9l-18.4-22.7ZM567.8,662.8c77.8,8.4,118,26,180.2,73.8-19.7-41.7-34.6-67.2-66.7-99.3,44.7-2.8,76.3.3,109.3,5.7-10.7-20.9-37.2-51.2-66.7-62.4,46.6-19.7,96-12.8,151.8-2.8-36.3-50.5-66-67.1-122-92.2,47.3-9.5,92.4-7,140.5-5.7-82.7-28.5-141-25.7-222.8,2.8,57,13.2,76.2,21.9,116.3,63.9-42.5-3.4-82.1,1.3-120.6,11.4,14.4,13.4,25.2,25.6,36.9,41.1-32.3-6.4-63-2.7-95.1,5.7,33.4,17.8,42.5,21.9,63.9,53.9-39.6-4.2-66.2-5.1-105,4.3h0Z"/>
</svg>